<svg xmlns="http://www.w3.org/2000/svg" width="128" height="128"><path fill="#fff" d="M0 0h128v128H0Z"/><path fill="#72C843" d="M48 16h10l3 2 6 3 3 1 2 3 3 8v2h3l4 4 1 2 2 10 1 7v2l-3 2H72v2l-1 5v2l2 4 1 3v12l-1 1h-3l-1-1-5-2v13l-2 3-1 1-1 4 1 5v4l-2 2H47l-2-2 1-3 2-2h2v-3l1-5 1-2v-2l-3-4-2-6-1-2v-6l1-6v-5l-1-4v-8l-5 2h-2l-1-1v-2l1-1 3-1-4-1-1-1v-2l1-1h4l-1-1v-2l1-1h2l2 2 2-7 2-3 1-3-6 1h-9l-2-1-2-4v-5l5-2 3-3 2-1 2-3 3-2Z"/><path fill="#D32B25" d="M48 16h10l3 2 6 3 3 1v2h-2l-2-1 2 4v9l-1 1v4l-2 3-2 2h-1l-1 3h-1l-1-1v-2l-3 1-1 1-1 3-1 1-7 1-1 1v2l1 2v2l-5 2h-2l-1-1v-2l1-1 3-1-4-1-1-1v-2l1-1h4l-1-1v-2l1-1h2l2 2 2-7 2-3 1-3-6 1h-9l-2-1-2-4v-5l5-2 3-3 2-1 2-3 3-2Z"/><path fill="#9EDD3D" d="M66 23h2l2 3 1 2v9l-1 5-3 4-2 1v5l-1 2-1 4-2 2-3 2-3 1-2 2-3 5-1 1h-1l-1-4-1-7-2-4v-2l2-2 7-1 2-5h4l1 2 1-4h1l1 1 2-2 1-3v-3l1-1v-9l-1-2Z"/><path fill="#43C8AA" d="M70 71h1l2 4 1 3v12l-1 1h-3l-1-1-5-2v13l-2 3-1 1-1 4 1 5v4l-2 2H47l-2-2 1-3 1-1 3 1v1l-2 1v1h6l4 1-2-5-1-2v-5l3-14 3-4 2-2 1-6 1-1h1l2-3Z"/><path fill="#F8901E" d="M63 21h4l3 1v2h-2l-2-1 2 4v9l-1 1v4l-2 3-2 2h-1l-1 3h-1l-1-1v-2l-3 1-1 1-1 3-1 1-7 1-1 1v2l1 2v2l-5 2h-2l-1-1v-2l1-1 3-1-4-1-1-1v-2l1-1h4l-1-1v-2l1-1h2l2 2 2-7 3-5h7l3-3h2l2 1v-7l-2-7Z"/><path fill="#B0CCD1" d="M76 35h2l4 4 1 2 2 10 1 7v2l-3 2H73v-4l3-6 1-5v-5l-1-3Z"/><path fill="#EA6E00" d="M51 38h2l2 7v3l-1 3-1 1-7 1-1 1v2l1 2v2l-5 2h-2l-1-1v-2l1-1 3-1-4-1-1-1v-2l1-1h4l-1-1v-2l1-1h2l2 2 2-7Z"/><path fill="#8FB5BC" d="M70 71h1l2 4 1 3v12l-1 1h-3l-1-1-3-1-1-1v-6l1-1 1-3 1-1Z"/><path fill="#5CFF1E" d="M61 44h1v8l-2 5-10 2-3-2v-3l3-2 3-1 2-5h4l1 2Z"/><path fill="#76DD3D" d="M69 24h2l1 1 4 10v4h-2l-1 8-3 2-2 3-2 2h-2v-8l3-1 2-3 1-5v-9l-1-2Z"/><path fill="#B91F1A" d="M48 16h10l3 2v1l-3 2h-1l-1-1-4-1h-3l-1 1h-3v3l-1 2-3 1-2 2-2 1-1 4h-2v2h-1l-1-2v-5l5-2 3-3 2-1 2-3 3-2Z"/><path fill="#ABF81E" d="M66 23h2l2 3 1 2v9l-1 5-3 4-3 1-1 1h-1v-2l3-3 1-3v-3l1-1v-9l-1-2Z"/><path fill="#AE231E" d="M55 31h3l2 3 1-1h1v2l-4 4h-5l-2-1-12-1-4-1v-1l8-1 3-1 2 2 4 1 3 1-2-2v-2Z"/><path fill="#CF4824" d="M59 19h4l2 1v1l-1 1 2 7v5l-1 2h-2l-2-2-1 1h-1v-2l1-2v-7l-2-3v-1Z"/><path fill="#8EB5BC" d="M79 50h1l2 8 3 2v1l-2 1H73v-4l2-4 3-2Z"/><path fill="#FF551E" d="M42 48h2l2 2v3l-1 1v2l1 2v2l-5 2h-2l-1-1v-2l1-1 3-1-4-1-1-1v-2l1-1h4l-1-1v-2Z"/><path fill="#76DD3D" d="M62 58h1v2l-2 4-4 3-1 2-3 1-2 2-1 2h-1v-4l3-5 3-3 3-1Z"/><path fill="#FF7800" d="M58 38h1l2 3 3 2v2l-1 1h-1l-1 3h-1l-1-1v-2l-3 1-2-2-1-3v-3Z"/><path fill="#8DB4BB" d="M70 77h1l1 2 1-1h1v12l-1 1h-3l-1-1-3-1-1-1v-1h4Z"/><path fill="#DDD13D" d="M46 52h4v1l-2 1v3l3 1 5-1h4v1l-1 1-10 3-1 1h-1l-2-5-1-2v-2Z"/><path fill="#DDC03D" d="M63 21h4l3 1v2h-2l-2-1 2 4v9l-3-1v-6l-2-7Z"/><path fill="#C1DD3D" d="M66 23h2l2 3 1 2v8h-3l-1-9-1-2Z"/><path fill="#CF6D24" d="M63 26h2l1 3v5l-1 2h-2l-2-3v-1l1-1Z"/><path fill="#B9FF1E" d="M50 52h1v2h3v2l-1 1h-2v2l-3-1-1-1v-3Z"/><path fill="#37AC95" d="M47 114l3 1v1l-2 1v1h12v1l-1 1H47l-2-2 1-3Z"/><path fill="#FFED1E" d="M56 42h3l2 1v6h-1l-1-1v-2l-3 1-1-1v-3Z"/><path fill="#8AB2BA" d="M80 38h1l2 3 2 10 1 7v2h-1l-1-1-2-13-1-4-1-2Z"/><path fill="#B3000D" d="M55 31h3l1 1v3l-2 2h-2l-2-2v-2Z"/><path fill="#ABC9CE" d="M70 71h1l2 4v6h-1l-1-2-1 1h-1l-1-3Z"/><path fill="#B3000D" d="M45 33h1l2 2v1l-3 1h-6l-4-1v-1l8-1Z"/><path fill="#FFB61E" d="M46 52h4v1l-2 1v3l2 1v1l-4 1-2-4v-2Z"/><path fill="#74B336" d="M46 60h1l1 7 2 7v2l-1 1h-1l-2-9Z"/><path fill="#C41D17" d="M48 23l3 1v3l-3 3h-4v-1l3-1 1-1v-1l-4-1v-1Z"/><path fill="#A6FF1E" d="M55 46h4l2 3v2h-3l-1-1-3-1Z"/><path d="M44 25h4l1 1v1l-2 2h-3l-2-1v-1Z"/><path fill="#CF6D24" d="M59 19h4l2 1v1l-1 1v4h-1l-2-3-2-3Z"/><path fill="#FF311B" d="M42 57h1l1 3-3 2h-2l-1-1v-2l1-1Z"/><path fill="#FF311B" d="M38 52h2l3 1v3h-5l-1-1v-2Z"/><path fill="#AE231E" d="M34 35l11 2v1h-9l-2-1Z"/><path fill="#FF311B" d="M42 48h2l1 1v3l-1 1h-1l-2-2v-2Z"/><path fill="#F8F51E" d="M67 36h2v3l-1 3-1 1h-1v-6Z"/><path fill="#363BB3" d="M58 108h1l1 1 1 5v4h-1l-1-3-1-5Z"/><path fill="#37AC7F" d="M52 103h1v3l-1 5-1 2h-1v-3l1-5Z"/><path fill="#1BFF00" d="M59 54h1v3l-4 1h-5v-1l4-1h4Z"/><path fill="#BED6DA" d="M82 51h1l1 1 1 8h-2l-1-6Z"/><path fill="#FFB71E" d="M56 42h3l2 1v2h-2l-1-1h-1l-1 2h-1v-3Z"/><path fill="#D32B25" d="M50 27h2v1l-2 3h-6v-1l4-1Z"/><path fill="#E03933" d="M53 24h1l2 2v2l-2 1h-2v-2Z"/><path fill="#3682B3" d="M62 92h1l1 5v4h-1l-1-3Z"/><path fill="#36B370" d="M65 80h1v2l-1 6h-2l1-7Z"/><path fill="#73B939" d="M53 69h3v1l-3 2-2 2h-1v-2Z"/><path fill="#AE231E" d="M48 16h10v1H48Z"/><path fill="#37AC95" d="M47 114l3 1v1l-3 2h-2l1-3Z"/><path fill="#74B336" d="M68 74h1v3l-1 1-1 3h-1v-4Z"/><path fill="#8AB2BA" d="M70 71h1l2 4v3h-1l-2-4Z"/><path fill="#DDB519" d="M48 43h1v4l-1 4h-1v-5Z"/><path fill="#A3DD19" d="M76 39h1l1 3v5h-1l-1-4Z"/><path fill="#E66F06" d="M51 38h2v2l-3 3h-1v-2Z"/><path fill="#76DD3D" d="M69 24h2l1 1v3h-2l-1-2Z"/><path fill="#BABABA" d="M71 20h6v1l-1 1h-6v-1Z"/><path fill="#C41D17" d="M33 29h1v3h2v1h-2v2h-1Z"/><path fill="#D32B25" d="M35 28h2l-1 4h-2v-3Z"/><path fill="#376FAC" d="M58 118h2v1l-1 1h-5v-1Z"/><path fill="#74B336" d="M72 58h1v4l-1 2h-1v-3Z"/><path fill="#DDB519" d="M74 33h1l1 2v4h-1l-1-3Z"/><path fill="#E03933" d="M50 30h1v2l-2 1h-2v-2Z"/><path fill="#36B370" d="M46 83h1v6h-1Z"/><path fill="#91B7BE" d="M66 81h1v3l-1 1h-1v-3Z"/><path fill="#5CFF1E" d="M61 44h1v6h-1Z"/><path fill="#B3000D" d="M34 35l5 1v1h-5Z"/><path fill="#3E0200" d="M35 35h6v1h-6Z"/><path fill="#BABABA" d="M61 15h1v3h2v1h-3Z"/><path fill="#BABABA" d="M59 13h5v1l-1 1-4-1Z"/><path fill="#36B370" d="M49 94h1l1 2v2h-1l-1-1Z"/><path fill="#36B3A7" d="M63 88h1v4h-2Z"/><path fill="#74B336" d="M69 69h1v5h-1Z"/><path fill="#74B336" d="M70 64h1v5h-1Z"/><path fill="#FFD300" d="M46 58h4v1l-4 1Z"/><path fill="#FF1900" d="M38 55h5v1h-5Z"/><path fill="#74B336" d="M74 54h1v2l-1 2h-1v-3Z"/><path fill="#AE231E" d="M61 19h2l2 1v1h-3l-1-1Z"/><path fill="#BABABA" d="M68 17h1v2l-1 2h-1v-3Z"/><path fill="#BABABA" d="M67 15h4v1l-1 1-3-1Z"/><path fill="#3682B3" d="M62 101h1v2l-1 1h-1v-2Z"/><path fill="#36B370" d="M52 100h2v3h-1Z"/><path fill="#5EDD19" d="M76 48h1v4h-1Z"/><path fill="#8AB2BA" d="M76 35h2l1 1v1h-2l-1-1Z"/><path fill="#E03933" d="M36 29h1l1 3h-2Z"/><path fill="#BABABA" d="M73 23h1v4h-1Z"/><path fill="#FFE1F7" d="M44 24h4v1h-4Z"/><path fill="#E03933" d="M55 23h2v2h-2Z"/><path fill="#CF4824" d="M58 18h3v1l-3 1Z"/><path fill="#AE231E" d="M44 19h2v1l-1 1h-2v-1Z"/><path fill="#3790AC" d="M54 119h3v1h-3Z"/><path fill="#375AAC" d="M60 115h1v3h-1Z"/><path fill="#37AC95" d="M50 114h3v1h-3Z"/><path fill="#363BB3" d="M59 105h1v3h-1Z"/><path fill="#36B370" d="M52 103h1v3h-1ZM48 91h1v3h-1ZM47 80h1v3h-1Z"/><path fill="#BED6DA" d="M72 78h1v3h-1Z"/><path fill="#74B336" d="M47 77h1v3h-1Z"/><path fill="#BED6DA" d="M69 74h2v2h-1l-1-1Z"/><path fill="#FF1900" d="M39 58h3v1h-3Z"/><path fill="#DDD13D" d="M60 54h1v3h-1Z"/><path fill="#FF551E" d="M43 54h1v3h-1Z"/><path fill="#FF1900" d="M40 53h3v1h-3Z"/><path fill="#74B336" d="M75 51h1v3h-1Z"/><path fill="#FFEB00" d="M47 52h3v1h-3Z"/><path fill="#1BFF00" d="M61 44h1v3h-1Z"/><path fill="#AE231E" d="M34 35h1l1 1v1h-2Z"/><path fill="#DD5B19" d="M74 33h1v3h-1Z"/><path fill="#DD5B19" d="M73 30h1v3h-1Z"/><path fill="#982824" d="M34 30h1l1 1v1h-2Z"/><path fill="#C41D17" d="M44 30h3v1h-3Z"/><path fill="#FFE1F7" d="M44 29h3v1h-3Z"/><path fill="#AE231E" d="M71 25h1v3h-1Z"/><path fill="#C41D17" d="M41 24h3v1h-3Z"/><path fill="#37AC95" d="M45 117h2v1h-2Z"/><path fill="#37AC95" d="M48 113h2v1h-2Z"/><path fill="#36B370" d="M51 98h1v2h-1ZM47 89h1v2h-1Z"/><path fill="#A5C5CB" d="M65 82h1v2h-1Z"/><path fill="#91B7BE" d="M66 81h1v2h-1Z"/><path fill="#BED6DA" d="M69 78h1v2h-1Z"/><path fill="#A5C5CB" d="M71 77h1v2h-1Z"/><path fill="#74B336" d="M50 72h1v2h-1Z"/><path fill="#FF1900" d="M39 61h2v1h-2Z"/><path fill="#FF1900" d="M41 60h2v1h-2Z"/><path fill="#FF1900" d="M38 59h1v2h-1Z"/><path fill="#FF6D00" d="M44 59h2v1h-2Z"/><path fill="#FFEB00" d="M48 58h2v1h-2Z"/><path fill="#76DD3D" d="M63 54h1v2h-1Z"/><path fill="#FF1900" d="M37 53h1v2h-1Z"/><path fill="#1BFF00" d="M60 52h1v2h-1ZM51 52h2v1h-2Z"/><path fill="#FF1900" d="M38 52h2v1h-2Z"/><path fill="#1BFF00" d="M61 50h1v2h-1ZM54 49h1v2h-1Z"/><path fill="#FF1900" d="M41 49h1v2h-1Z"/><path fill="#FF1900" d="M42 48h2v1h-2Z"/><path fill="#A6FF1E" d="M55 46h1v2h-1Z"/><path fill="#DDB519" d="M49 41h1v2h-1Z"/><path fill="#A5C5CB" d="M77 40h1v2h-1Z"/><path fill="#E3710C" d="M51 38h1v2h-1Z"/><path fill="#AE231E" d="M33 33h1v2h-1ZM72 28h1v2h-1Z"/><path fill="#FFE1F7" d="M42 28h2v1h-2Z"/><path fill="#C41D17" d="M37 27h2v1h-2Z"/><path fill="#AE231E" d="M68 23h2v1h-2Z"/><path fill="#C41D17" d="M46 23h2v1h-2Z"/><path fill="#BABABA" d="M68 22h2v1h-2Z"/><path fill="#AE231E" d="M66 22h2v1h-2Z"/><path fill="#C41D17" d="M44 21h1v2h-1Z"/><path fill="#AE231E" d="M59 18h2v1h-2Z"/><path fill="#BABABA" d="M65 16h2v1h-2Z"/><path d="M44 118h1v1h-1Z"/><path d="M45 117h1v1h-1Z"/><path fill="#363BB3" d="M60 104h1v1h-1Z"/><path fill="#A5C5CB" d="M66 81h1v1h-1Z"/><path fill="#A5C5CB" d="M67 78h1v1h-1Z"/><path fill="#A5C5CB" d="M68 77h1v1h-1Z"/><path fill="#BED6DA" d="M71 76h1v1h-1Z"/><path fill="#74B336" d="M51 71h1v1h-1Z"/><path fill="#FF1900" d="M43 59h1v1h-1Z"/><path fill="#FF311B" d="M42 59h1v1h-1Z"/><path fill="#A3FF00" d="M50 58h1v1h-1Z"/><path fill="#FF1900" d="M42 57h1v1h-1Z"/><path fill="#FF1900" d="M43 56h1v1h-1Z"/><path fill="#A5C5CB" d="M75 54h1v1h-1Z"/><path fill="#A3FF00" d="M50 52h1v1h-1Z"/><path fill="#FFD300" d="M47 52h1v1h-1Z"/><path fill="#FF1900" d="M43 52h1v1h-1Z"/><path fill="#1BFF00" d="M53 51h1v1h-1Z"/><path fill="#FF6D00" d="M46 51h1v1h-1Z"/><path fill="#FF1900" d="M42 51h1v1h-1Z"/><path fill="#FF6D00" d="M45 50h1v1h-1Z"/><path fill="#FF1900" d="M44 49h1v1h-1Z"/><path fill="#5CFF1E" d="M54 48h1v1h-1Z"/><path fill="#5CFF1E" d="M55 46h1v1h-1Z"/><path fill="#F8F51E" d="M64 44h1v1h-1Z"/><path fill="#FF7800" d="M52 38h1v1h-1Z"/><path fill="#8AB2BA" d="M79 37h1v1h-1Z"/><path fill="#D32B25" d="M57 36h1v1h-1Z"/><path fill="#F8F21E" d="M66 35h1v1h-1Z"/><path fill="#CF4824" d="M58 35h1v1h-1Z"/><path fill="#DD5B19" d="M73 32h1v1h-1Z"/><path fill="#AE231E" d="M73 30h1v1h-1Z"/><path fill="#D32B25" d="M49 30h1v1h-1Z"/><path fill="#D32B25" d="M47 30h1v1h-1Z"/><path fill="#C41D17" d="M35 30h1v1h-1ZM48 29h1v1h-1Z"/><path fill="#C41D17" d="M49 28h1v1h-1Z"/><path fill="#FFE1F7" d="M47 28h1v1h-1Z"/><path fill="#BABABA" d="M72 27h1v1h-1Z"/><path fill="#76DD3D" d="M70 27h1v1h-1Z"/><path fill="#C41D17" d="M50 27h1v1h-1Z"/><path fill="#FFE1F7" d="M48 27h1v1h-1ZM41 27h1v1h-1Z"/><path fill="#FFE1F7" d="M49 26h1v1h-1ZM42 26h1v1h-1Z"/><path fill="#C41D17" d="M39 26h1v1h-1Z"/><path fill="#FFE1F7" d="M48 25h1v1h-1Z"/><path fill="#FFE1F7" d="M43 25h1v1h-1Z"/><path fill="#C41D17" d="M40 25h1v1h-1Z"/><path fill="#AE231E" d="M70 24h1v1h-1Z"/><path fill="#D32B25" d="M43 24h1v1h-1Z"/><path fill="#C41D17" d="M43 23h1v1h-1Z"/><path fill="#BABABA" d="M74 22h1v1h-1ZM66 21h1v1h-1Z"/><path fill="#AE231E" d="M65 21h1v1h-1ZM46 18h1v1h-1Z"/><path fill="#BABABA" d="M64 17h1v1h-1Z"/><path fill="#AE231E" d="M58 17h1v1h-1ZM47 17h1v1h-1Z"/><path fill="#BABABA" d="M57 15h1v1h-1Z"/><path fill="#BABABA" d="M58 14h1v1h-1Z"/></svg>